<svg width="25" height="24" viewBox="0 0 25 24" fill="none" xmlns="http://www.w3.org/2000/svg">
<rect x="0.333008" width="24" height="24" rx="12" fill="#FEF8F3"/>
<path d="M8.33301 9.1188V15.4422C8.33301 16.3496 8.33301 16.8032 8.46909 17.0808C8.7213 17.5954 9.27406 17.8912 9.84212 17.8156C10.1486 17.7748 10.5261 17.5232 11.2811 17.0198L11.2829 17.0186C11.5821 16.8191 11.7318 16.7194 11.8883 16.664C12.1758 16.5624 12.4895 16.5624 12.777 16.664C12.9339 16.7195 13.0841 16.8196 13.3846 17.0199C14.1395 17.5233 14.5174 17.7747 14.8239 17.8155C15.392 17.8911 15.9447 17.5954 16.1969 17.0808C16.333 16.8032 16.333 16.3495 16.333 15.4422V9.11661C16.333 8.37133 16.333 7.99814 16.1878 7.7132C16.06 7.46232 15.8555 7.25849 15.6046 7.13066C15.3194 6.98534 14.9465 6.98534 14.1998 6.98534H10.4665C9.71973 6.98534 9.34609 6.98534 9.06087 7.13066C8.80999 7.25849 8.60616 7.46232 8.47833 7.7132C8.33301 7.99842 8.33301 8.37206 8.33301 9.1188Z" stroke="#EC6707" stroke-width="2" stroke-linecap="round" stroke-linejoin="round"/>
</svg>
