<svg width="40" height="41" viewBox="0 0 40 41" fill="none" xmlns="http://www.w3.org/2000/svg">
<mask id="mask0_2042_448" style="mask-type:luminance" maskUnits="userSpaceOnUse" x="0" y="0" width="40" height="41">
<path d="M40 20.2198C40 9.17409 31.0457 0.219788 20 0.219788C8.9543 0.219788 0 9.17409 0 20.2198C0 31.2655 8.9543 40.2198 20 40.2198C31.0457 40.2198 40 31.2655 40 20.2198Z" fill="white"/>
</mask>
<g mask="url(#mask0_2042_448)">
<path d="M40 0.219788H0V40.2198H40V0.219788Z" fill="#FFAD08"/>
<path d="M35.2492 44.002L21.5684 6.41431L-16.0193 20.0951L-2.33854 57.6828L35.2492 44.002Z" fill="#EDD75A"/>
<path d="M17 25.2198C21.4183 25.2198 25 21.6381 25 17.2198C25 12.8015 21.4183 9.21979 17 9.21979C12.5817 9.21979 9 12.8015 9 17.2198C9 21.6381 12.5817 25.2198 17 25.2198Z" fill="#73B06F"/>
<path d="M35.3203 7.36404L4.67853 33.0755" stroke="#0C8F8F"/>
</g>
</svg>
