<svg width="40" height="41" viewBox="0 0 40 41" fill="none" xmlns="http://www.w3.org/2000/svg">
<g clip-path="url(#clip0_2042_656)">
<mask id="mask0_2042_656" style="mask-type:luminance" maskUnits="userSpaceOnUse" x="0" y="0" width="40" height="41">
<path d="M40 20.2198C40 9.17415 31.0457 0.219849 20 0.219849C8.9543 0.219849 0 9.17415 0 20.2198C0 31.2655 8.9543 40.2198 20 40.2198C31.0457 40.2198 40 31.2655 40 20.2198Z" fill="white"/>
</mask>
<g mask="url(#mask0_2042_656)">
<path d="M40 0.219849H0V40.2198H40V0.219849Z" fill="#405059"/>
<path d="M40.0889 33.634L31.7725 -5.49194L-7.35344 2.82452L0.963023 41.9504L40.0889 33.634Z" fill="#FFAD08"/>
<path d="M24.5 23.7198C28.9183 23.7198 32.5 20.1381 32.5 15.7198C32.5 11.3016 28.9183 7.71985 24.5 7.71985C20.0817 7.71985 16.5 11.3016 16.5 15.7198C16.5 20.1381 20.0817 23.7198 24.5 23.7198Z" fill="#EDD75A"/>
<path d="M46.2715 4.08508L9.72967 20.3545" stroke="#73B06F"/>
</g>
</g>
<defs>
<clipPath id="clip0_2042_656">
<rect width="40" height="40" fill="white" transform="translate(0 0.219849)"/>
</clipPath>
</defs>
</svg>
