<svg width="25" height="24" viewBox="0 0 25 24" fill="none" xmlns="http://www.w3.org/2000/svg">
<rect x="0.666992" width="24" height="24" rx="12" fill="#FEF8F3"/>
<path d="M10.0003 9.652H8.80046C8.05372 9.652 7.68007 9.652 7.39486 9.79733C7.14397 9.92516 6.94015 10.129 6.81232 10.3799C6.66699 10.6651 6.66699 11.0387 6.66699 11.7855V15.5188C6.66699 16.2655 6.66699 16.6387 6.81232 16.9239C6.94015 17.1748 7.14397 17.379 7.39486 17.5068C7.67979 17.652 8.05299 17.652 8.79827 17.652H16.5357C17.281 17.652 17.6537 17.652 17.9386 17.5068C18.1895 17.379 18.394 17.1748 18.5218 16.9239C18.667 16.639 18.667 16.2663 18.667 15.5211V11.7833C18.667 11.038 18.667 10.6648 18.5218 10.3799C18.394 10.129 18.1895 9.92516 17.9386 9.79733C17.6534 9.652 17.2805 9.652 16.5338 9.652H15.3337M10.0003 9.652H15.3337M10.0003 9.652C10.0003 8.17924 11.1942 6.98534 12.667 6.98534C14.1398 6.98534 15.3337 8.17924 15.3337 9.652" stroke="#EC6707" stroke-width="2" stroke-linecap="round" stroke-linejoin="round"/>
</svg>
