<svg width="24" height="24" viewBox="0 0 24 24" fill="none" xmlns="http://www.w3.org/2000/svg">
<rect width="24" height="24" rx="12" fill="#FEF8F3"/>
<path d="M15.3333 15.652C14.597 15.652 14 16.249 14 16.9853C14 17.7217 14.597 18.3187 15.3333 18.3187C16.0697 18.3187 16.6667 17.7217 16.6667 16.9853C16.6667 16.249 16.0697 15.652 15.3333 15.652ZM15.3333 15.652H10.196C9.88859 15.652 9.73462 15.652 9.60807 15.5973C9.49644 15.5491 9.39959 15.4714 9.32903 15.3724C9.24994 15.2613 9.21813 15.1129 9.15516 14.819L7.51432 7.16176C7.44989 6.86109 7.41725 6.71092 7.33724 6.59861C7.26668 6.49956 7.16985 6.42161 7.05821 6.37336C6.93164 6.31866 6.77853 6.31866 6.47102 6.31866H6M8 8.31866H16.5821C17.0633 8.31866 17.3037 8.31866 17.4652 8.4189C17.6066 8.50671 17.7102 8.64441 17.7554 8.80467C17.8069 8.98762 17.7407 9.21864 17.6073 9.68097L16.6842 12.881C16.6045 13.1574 16.5646 13.2954 16.4837 13.3979C16.4123 13.4885 16.3181 13.5593 16.2114 13.6028C16.0908 13.652 15.9474 13.652 15.6614 13.652H9.15365M9.33333 18.3187C8.59695 18.3187 8 17.7217 8 16.9853C8 16.249 8.59695 15.652 9.33333 15.652C10.0697 15.652 10.6667 16.249 10.6667 16.9853C10.6667 17.7217 10.0697 18.3187 9.33333 18.3187Z" stroke="#EC6707" stroke-width="1.33333" stroke-linecap="round" stroke-linejoin="round"/>
</svg>
